<svg xmlns="http://www.w3.org/2000/svg" height="24" viewBox="0 0 200 24">
  <text x="0" y="17" font-size="16" font-family="sans-serif" fill="currentColor">
    Kyxzz
  </text>

  <g transform="translate(80,3)">
    <path fill="#0095F6" d="M12 2.5l2.2 1.6 2.7-.4 1.1 2.5 2.5 1.1-.4 2.7 1.6 2.2-1.6 2.2.4 2.7-2.5 1.1-1.1 2.5-2.7-.4L12 21.5l-2.2-1.6-2.7.4-1.1-2.5-2.5-1.1.4-2.7L2.3 12l1.6-2.2-.4-2.7 2.5-1.1 1.1-2.5 2.7.4L12 2.5z"/>
    <path d="M8 12.5l2.5 2.5L16.5 9"
      stroke="white"
      stroke-width="2.6"
      fill="none"
      stroke-linecap="round"
      stroke-linejoin="round"/>
  </g>
</svg>
